PathFileType	4	(X/Y/Z)	Patient4_TMGait_0pt8_01_left_06.trc.trc
DataRate	CameraRate	NumFrames	NumMarkers	Units	OrigDataRate	OrigDataStartFrame	OrigNumFrames
89.171974522293	89.171974522293	4	33	mm	89.171974522293	71	       141
Frame#	Time	Sacral			L.Shoulder			Chest			R.Shoulder			Neck			R.ASIS			L.ASIS			R.Thigh.Superior			R.Thigh.Lateral			R.Thigh.Inferior			R.Patella			L.Thigh.Superior			L.Thigh.Lateral			L.Thigh.Inferior			L.Patella			L.Shank.Superior			L.Shank.Lateral			L.Shank.Inferior			R.Shank.Superior			R.Shank.Lateral			R.Shank.Inferior			R.Heel			R.Midfoot.Superior			R.Midfoot.Lateral			R.Toe			L.Heel			L.Midfoot.Lateral			L.Midfoot.Superior			L.Toe			L.Elbow			L.Wrist			R.Elbow			R.Wrist			
		X1	Y1	Z1	X2	Y2	Z2	X3	Y3	Z3	X4	Y4	Z4	X5	Y5	Z5	X6	Y6	Z6	X7	Y7	Z7	X8	Y8	Z8	X9	Y9	Z9	X10	Y10	Z10	X11	Y11	Z11	X12	Y12	Z12	X13	Y13	Z13	X14	Y14	Z14	X15	Y15	Z15	X16	Y16	Z16	X17	Y17	Z17	X18	Y18	Z18	X19	Y19	Z19	X20	Y20	Z20	X21	Y21	Z21	X22	Y22	Z22	X23	Y23	Z23	X24	Y24	Z24	X25	Y25	Z25	X26	Y26	Z26	X27	Y27	Z27	X28	Y28	Z28	X29	Y29	Z29	X30	Y30	Z30	X31	Y31	Z31	X32	Y32	Z32	X33	Y33	Z33	

71	6.655000000000	828.598774930638	997.675181966746	453.746287064022	1039.373224311457	1432.685210665381	306.928135009508	1114.658152668992	1356.122176116772	478.886288324000	1005.737072115795	1423.774812407608	640.957983281790	1000.717913710634	1486.582535932472	462.433501385459	1042.034100963327	936.291236286844	598.140396214705	1058.407524268617	955.064414756187	322.686608498788	1124.666265372868	773.310163445726	574.050866390632	1086.613355661752	651.267761518420	652.065868192842	1180.707879193971	618.728567346248	576.708531404083	1219.201786694603	538.688129642416	598.016184325856	1054.017731489048	725.653581414426	352.970501867443	940.689479578816	633.135723025963	279.163238807068	990.785139752066	539.079484701228	350.390379605679	973.440277640522	474.763473582201	358.469175402195	941.813450044231	408.313578301624	347.848333263858	843.654807980680	302.480015824763	295.576288174414	880.068891033074	188.316557591414	370.785217589825	1207.372900016112	447.369327784669	608.176244184923	1156.752232324684	332.618937626972	672.057872521363	1230.541968056819	248.419648465458	623.775102842294	1147.648611203816	54.525495069818	597.443189275157	1304.028944939539	140.863137311125	640.085821407864	1231.906772809211	56.512355998719	670.852510268288	1430.645838949977	112.835861376844	664.612988113371	742.292336641214	37.768413948394	413.953299240831	812.778103960284	35.259146385099	330.207888446690	897.157966358820	96.143038266240	355.964131311732	1023.689458307903	46.561702564102	320.792469387159	1133.486540812340	1123.019257528520	140.382569196476	1379.221830027833	1059.579750015269	188.813175342480	853.172219233348	1110.197590953349	737.343234597862	807.139026073503	856.792519439783	767.503601446749	
72	6.666214285714	830.452968545425	995.357191994684	455.690190538722	1039.839650225149	1430.761128935782	309.081523219917	1115.143931432948	1354.508414028933	481.128560108808	1005.694250986850	1422.119460524257	642.845963327862	1000.848686275840	1484.528214555083	464.406592086061	1043.872762887807	933.849902909829	600.282325983723	1060.250441077875	953.189892340661	324.763516600655	1125.255830410053	769.428819436608	576.362689774621	1084.808749920273	646.923512268514	652.761157651246	1179.275892476840	614.556748062105	578.042269202602	1216.218984181384	534.797296848250	598.058167429205	1053.474157124157	723.205474729700	354.229787823117	938.869789948361	631.836834709921	280.489395028063	988.019244106322	537.169924614564	351.484112276314	969.958942783976	472.724829939142	359.452958688564	937.368709257023	406.592533221388	348.736750066946	837.647983997308	302.232878409959	296.127564527528	872.401423280871	187.385936697858	371.045912992060	1205.708286456022	443.424805924822	608.387704143641	1155.896583981232	327.734201173564	671.017065294553	1231.427214775461	244.869405747555	623.036587997692	1151.892585360652	49.974484325039	595.180267899673	1306.150324298944	138.820299982213	639.341389524159	1235.091547017463	53.779267464391	669.747179822445	1433.012598565500	113.229980238728	666.009944085956	733.230049149447	37.547840012872	413.887235319489	803.747026013752	35.061915340567	330.186873566673	888.183770730259	95.938698239740	356.037158198865	1014.698899220117	46.278190552371	320.765543193535	1136.613438906477	1122.386564644898	142.618636915406	1384.122831608766	1070.460461475117	192.775914968062	847.421844473647	1112.665397569184	739.536500419078	798.137776992641	859.658314280010	768.420114478485	
73	6.677428571429	832.437503619861	992.917041367123	457.992421291234	1040.176341028948	1428.675606222350	311.268696000766	1115.654999759988	1352.863825660856	483.394057045171	1005.740046172866	1420.434653607288	644.802280318187	1000.960521565599	1482.384440135336	466.437387098683	1045.989624237414	931.335254457681	602.506066744912	1062.153806119343	951.220048693303	326.989551642532	1126.467176374512	765.623156818704	578.758634056344	1083.421133498418	642.595525816085	653.195210126362	1178.394183630455	610.457572859146	579.305161261299	1213.582786778311	530.561147717678	597.988968223312	1053.423315123792	720.700589191655	355.541665477415	937.584294652187	630.335370912336	282.113477527680	986.065517492692	535.070736893642	352.756205241209	967.323002194279	470.340033945625	360.682142262805	933.623736801538	404.575950400976	349.858345072453	832.109636419428	301.957547496817	296.876332636229	864.955334729813	186.331759589587	371.369291540746	1203.843958948874	439.093014589198	608.412594727741	1154.051404267731	322.837087279233	669.734949049208	1230.634324296606	240.820431371960	622.031029463270	1152.751297153086	46.261904039387	592.670244694234	1305.747434908838	135.692114211240	638.251474688176	1234.866697511728	50.959082056473	668.395334162046	1432.457313825150	111.052351428749	666.983211729731	724.136218835320	37.329070501740	413.776959838722	794.725487238804	34.835777043020	330.160278050356	879.257895847407	95.706345757007	356.115850563167	1005.768150011329	45.879148106299	320.729388436227	1139.437553053682	1121.355017584222	145.136450096377	1388.130678438545	1080.386227439647	196.876526841834	842.459345236833	1114.758752288243	741.615658379921	790.326156557857	862.065575041078	769.211513533690	
74	6.688642857143	834.504044941465	990.422346976941	460.607912885795	1040.415003237363	1426.479884372664	313.484727959460	1116.206162320706	1351.216621654455	485.679420623487	1005.899031861441	1418.744118509056	646.836966888465	1001.086100124221	1480.210142054703	468.531839173149	1048.322516111966	928.839899572045	604.793522423476	1064.090438104708	949.194778450005	329.350070702617	1128.223089277908	761.952837436417	581.230942443515	1082.444579606974	638.431713634469	653.465467310736	1178.020571796712	606.533710087428	580.536065446508	1211.347061312255	526.159685476723	597.894944561748	1053.894864425445	718.178673896904	356.921036698775	936.880506592568	628.642386441917	284.050002732813	984.997243151843	532.791783893825	354.220173564241	965.629162502165	467.597634498409	362.149853915278	930.627383311564	402.281092089503	351.219215389392	827.095188297404	301.698606949666	297.831487817557	857.764016417374	185.205356073744	371.753362426784	1201.908121217838	434.571568305201	608.329121914421	1151.518293511896	318.065042298049	668.394290173986	1228.511176240568	236.435169855956	620.883198457425	1150.633056004908	43.421429792105	590.162014112506	1303.325004022229	131.618180618877	636.887006055819	1231.778773510129	48.106535730724	666.934823443296	1429.571593190580	106.460287255263	667.382061731467	715.013340965519	37.213051766292	413.611008118276	785.720644408767	34.629424499612	330.124492445199	870.414811307743	95.466635287896	356.184089823056	996.909901173527	45.358813575441	320.679340677870	1141.930231448689	1119.945803883822	147.912019113809	1391.299621866373	1089.265452088081	201.089393440625	838.387288386690	1116.368810671060	743.559134616113	783.707614432571	863.947065383443	769.930998450590	
